<svg id="Layer_1" data-name="Layer 1" xmlns="http://www.w3.org/2000/svg" viewBox="0 0 52.51 52.26"><defs><style>.cls-1{fill:#401547;}</style></defs><g id="Group_143" data-name="Group 143"><path id="Path_132" data-name="Path 132" class="cls-1" d="M26.72,37.57l-3.21-3.18-7.25-7.25a3.09,3.09,0,1,1,4.37-4.37C21.75,23.87,22.85,25,24,26.1c.2.2.37.42.61.69a3.28,3.28,0,0,1,3.05-2.19,3.17,3.17,0,0,1,1.49-2.7,3.07,3.07,0,0,1,3.06-.12,6,6,0,0,1,.4-.8,3,3,0,0,1,4.75-.58c1.38,1.34,2.73,2.72,4.08,4.08.16.18.31.36.45.55L42,25v-13H6.07a3.16,3.16,0,0,0,0,.32V34a1.2,1.2,0,0,0,.43,1.1,1.69,1.69,0,0,0,.9.27c3,0,6,0,9.06,0a2.57,2.57,0,0,1,.48,0,.82.82,0,0,1,.69.89.78.78,0,0,1-.81.76h0c-.91,0-1.83,0-2.75,0-2.17,0-4.35-.06-6.52,0a3,3,0,0,1-3.16-2.86,1.4,1.4,0,0,1,0-.29q0-13.22,0-26.42A3.09,3.09,0,0,1,7.23,4.22h.38c9.73,0,19.47,0,29.2,0,1.24,0,2.48,0,3.72,0A3,3,0,0,1,43.69,7a2.28,2.28,0,0,1,0,.37c0,6.31,0,12.61,0,18.92a1.12,1.12,0,0,0,.3.78,11.41,11.41,0,0,1,2.91,9.36,11.75,11.75,0,0,1-9.62,10.25,11.45,11.45,0,0,1-6-.46c-2.7-.93-5.38-1.88-8.07-2.8a3.24,3.24,0,0,1-2.39-2.75,3.17,3.17,0,0,1,2.71-3.56,3.12,3.12,0,0,1,1.14.06c.69.15,1.37.32,2.06.49ZM45.3,34.11a9.76,9.76,0,0,0-3-6.4q-2.4-2.41-4.8-4.8c-.44-.44-.87-.89-1.32-1.32a1.37,1.37,0,0,0-1.49-.27,1.31,1.31,0,0,0-.86,1.19,1.42,1.42,0,0,0,.47,1.18q1.55,1.53,3.08,3.08c.47.48.53,1,.15,1.36s-.86.3-1.32-.16l-1.54-1.53c-1-1-1.92-1.93-2.89-2.89a1.4,1.4,0,0,0-2.4.9,1.52,1.52,0,0,0,.53,1.21C31.25,27,32.64,28.42,34,29.81c.59.58.68,1,.28,1.44s-.87.34-1.45-.25l-4.21-4.2a1.37,1.37,0,0,0-1.36-.46A1.4,1.4,0,0,0,26.18,28a1.45,1.45,0,0,0,.42.74c1.37,1.4,2.76,2.77,4.14,4.15.47.47.51.94.14,1.32s-.85.35-1.31-.12L23,27.49,19.43,24a1.39,1.39,0,0,0-1.5-.39A1.34,1.34,0,0,0,17,24.7,1.53,1.53,0,0,0,17.54,26L30,38.5a.9.9,0,0,1,.27,1.15c-.21.37-.57.49-1.12.35l-4.73-1.14a1.52,1.52,0,0,0-1,2.87l.1,0c2.47.87,4.94,1.7,7.4,2.58a11.64,11.64,0,0,0,5,.82C41.25,44.71,45.3,40.34,45.3,34.11Zm-3.36-23.9a.49.49,0,0,0,0-.1c0-.89,0-1.78,0-2.67,0-1.13-.38-1.51-1.52-1.51H7.34c-.73,0-1.24.37-1.27,1C6,8,6.05,9.1,6.05,10.2Z"/><path id="Path_133" data-name="Path 133" class="cls-1" d="M14.28,21.86a1.66,1.66,0,0,1-.48-.29c-1-1-2-2-3-3a.84.84,0,0,1-.12-1.18s0,0,.05-.05a.84.84,0,0,1,1.18,0l.08.08,3,3a.83.83,0,0,1,.23,1A.87.87,0,0,1,14.28,21.86Z"/><path id="Path_134" data-name="Path 134" class="cls-1" d="M11.9,25.51H11a.78.78,0,0,1-.78-.7.74.74,0,0,1,.55-.89h0a13.35,13.35,0,0,1,2.28,0,.76.76,0,0,1,.59.83.84.84,0,0,1-.78.76h-1Z"/><path id="Path_135" data-name="Path 135" class="cls-1" d="M18.92,18.51c0,.3,0,.59,0,.88a.83.83,0,0,1-.78.85.84.84,0,0,1-.88-.77c0-.64,0-1.29,0-1.94a.81.81,0,0,1,.86-.75h0a.8.8,0,0,1,.78.82v.91Z"/><path id="Path_136" data-name="Path 136" class="cls-1" d="M20,37.05a.82.82,0,0,1-.83-.8v0a.84.84,0,0,1,1.67,0,.83.83,0,0,1-.81.83Z"/><path id="Path_137" data-name="Path 137" class="cls-1" d="M30.1,8.92H21.8a3.2,3.2,0,0,1-.53,0,.75.75,0,0,1-.67-.71.76.76,0,0,1,.53-.87,1.57,1.57,0,0,1,.57-.07h17a.81.81,0,0,1,.83.82v0a.8.8,0,0,1-.78.82h-.08c-1.28,0-2.57,0-3.86,0Z"/><path id="Path_138" data-name="Path 138" class="cls-1" d="M9.36,8.91a.8.8,0,0,1-.84-.76.13.13,0,0,1,0-.06.83.83,0,0,1,.81-.85h0a.86.86,0,0,1,.84.81.83.83,0,0,1-.79.86Z"/><path id="Path_139" data-name="Path 139" class="cls-1" d="M12.46,7.24a.85.85,0,0,1,.77.91.83.83,0,0,1-.89.75h0A.84.84,0,0,1,11.55,8,.87.87,0,0,1,12.46,7.24Z"/><path id="Path_140" data-name="Path 140" class="cls-1" d="M15.45,8.91a.81.81,0,0,1-.82-.8v0a.82.82,0,0,1,.81-.82.85.85,0,0,1,.85.84.82.82,0,0,1-.8.83Z"/></g></svg>